HIERARCHY
ROOT mixamorig:Hips
{
	OFFSET -0.000008 104.274872 1.554316
	CHANNELS 6 Xposition Yposition Zposition Xrotation Yrotation Zrotation
	JOINT mixamorig:Spine
	{
		OFFSET -0.000005 10.181595 0.131519
		CHANNELS 6 Xposition Yposition Zposition Xrotation Yrotation Zrotation
		JOINT mixamorig:Spine1
		{
			OFFSET -0.000000 9.893959 -1.470707
			CHANNELS 6 Xposition Yposition Zposition Xrotation Yrotation Zrotation
			JOINT mixamorig:Spine2
			{
				OFFSET -0.000000 9.220757 -1.370641
				CHANNELS 6 Xposition Yposition Zposition Xrotation Yrotation Zrotation
				JOINT mixamorig:Neck
				{
					OFFSET 0.000001 16.740417 -2.049036
					CHANNELS 6 Xposition Yposition Zposition Xrotation Yrotation Zrotation
					JOINT mixamorig:Head
					{
						OFFSET 0.000000 9.617874 1.685006
						CHANNELS 6 Xposition Yposition Zposition Xrotation Yrotation Zrotation
						JOINT mixamorig:HeadTop_End
						{
							OFFSET 0.000002 22.037354 7.501101
							CHANNELS 6 Xposition Yposition Zposition Xrotation Yrotation Zrotation
							End Site
							{
								OFFSET 0.000168 2310.654297 -282.823242
							}
						}
					}
				}
				JOINT mixamorig:RightShoulder
				{
					OFFSET -4.569970 11.014908 -2.160885
					CHANNELS 6 Xposition Yposition Zposition Xrotation Yrotation Zrotation
					JOINT mixamorig:RightArm
					{
						OFFSET -10.592851 -0.524811 -2.232101
						CHANNELS 6 Xposition Yposition Zposition Xrotation Yrotation Zrotation
						JOINT mixamorig:RightForeArm
						{
							OFFSET -27.841511 0.000031 -0.000004
							CHANNELS 6 Xposition Yposition Zposition Xrotation Yrotation Zrotation
							JOINT mixamorig:RightHand
							{
								OFFSET -28.328831 -0.000015 0.000015
								CHANNELS 6 Xposition Yposition Zposition Xrotation Yrotation Zrotation
								JOINT mixamorig:RightHandThumb1
								{
									OFFSET -2.464806 -1.573990 2.681852
									CHANNELS 6 Xposition Yposition Zposition Xrotation Yrotation Zrotation
									JOINT mixamorig:RightHandThumb2
									{
										OFFSET -3.215179 -1.872803 1.924282
										CHANNELS 6 Xposition Yposition Zposition Xrotation Yrotation Zrotation
										JOINT mixamorig:RightHandThumb3
										{
											OFFSET -2.654831 -1.527969 1.512609
											CHANNELS 6 Xposition Yposition Zposition Xrotation Yrotation Zrotation
											JOINT mixamorig:RightHandThumb4
											{
												OFFSET -2.018814 -1.152008 1.108052
												CHANNELS 6 Xposition Yposition Zposition Xrotation Yrotation Zrotation
												End Site
												{
													OFFSET -188.809540 -114.533607 132.431396
												}
											}
										}
									}
								}
								JOINT mixamorig:RightHandIndex1
								{
									OFFSET -9.108284 -0.517868 2.259835
									CHANNELS 6 Xposition Yposition Zposition Xrotation Yrotation Zrotation
									JOINT mixamorig:RightHandIndex2
									{
										OFFSET -3.699989 0.000000 0.001215
										CHANNELS 6 Xposition Yposition Zposition Xrotation Yrotation Zrotation
										JOINT mixamorig:RightHandIndex3
										{
											OFFSET -2.850006 0.000031 -0.000522
											CHANNELS 6 Xposition Yposition Zposition Xrotation Yrotation Zrotation
											JOINT mixamorig:RightHandIndex4
											{
												OFFSET -2.772186 -0.000015 -0.000020
												CHANNELS 6 Xposition Yposition Zposition Xrotation Yrotation Zrotation
												End Site
												{
													OFFSET -277.218445 0.000000 -0.050231
												}
											}
										}
									}
								}
								JOINT mixamorig:RightHandMiddle1
								{
									OFFSET -9.532516 -0.000031 -0.000023
									CHANNELS 6 Xposition Yposition Zposition Xrotation Yrotation Zrotation
									JOINT mixamorig:RightHandMiddle2
									{
										OFFSET -3.700005 -0.000015 0.003713
										CHANNELS 6 Xposition Yposition Zposition Xrotation Yrotation Zrotation
										JOINT mixamorig:RightHandMiddle3
										{
											OFFSET -2.949974 0.000015 -0.002054
											CHANNELS 6 Xposition Yposition Zposition Xrotation Yrotation Zrotation
											JOINT mixamorig:RightHandMiddle4
											{
												OFFSET -2.946640 0.000000 -0.000156
												CHANNELS 6 Xposition Yposition Zposition Xrotation Yrotation Zrotation
												End Site
												{
													OFFSET -294.664337 0.000000 -0.113670
												}
											}
										}
									}
								}
								JOINT mixamorig:RightHandRing1
								{
									OFFSET -9.103600 -0.043076 -1.865134
									CHANNELS 6 Xposition Yposition Zposition Xrotation Yrotation Zrotation
									JOINT mixamorig:RightHandRing2
									{
										OFFSET -3.379288 0.000000 -0.001055
										CHANNELS 6 Xposition Yposition Zposition Xrotation Yrotation Zrotation
										JOINT mixamorig:RightHandRing3
										{
											OFFSET -2.889687 -0.000015 0.000379
											CHANNELS 6 Xposition Yposition Zposition Xrotation Yrotation Zrotation
											JOINT mixamorig:RightHandRing4
											{
												OFFSET -2.638809 -0.000015 0.000941
												CHANNELS 6 Xposition Yposition Zposition Xrotation Yrotation Zrotation
												End Site
												{
													OFFSET -263.880371 0.000000 0.516020
												}
											}
										}
									}
								}
								JOINT mixamorig:RightHandPinky1
								{
									OFFSET -8.076683 -0.486710 -3.806280
									CHANNELS 6 Xposition Yposition Zposition Xrotation Yrotation Zrotation
									JOINT mixamorig:RightHandPinky2
									{
										OFFSET -3.600014 -0.000015 -0.003747
										CHANNELS 6 Xposition Yposition Zposition Xrotation Yrotation Zrotation
										JOINT mixamorig:RightHandPinky3
										{
											OFFSET -2.099983 0.000000 -0.005739
											CHANNELS 6 Xposition Yposition Zposition Xrotation Yrotation Zrotation
											JOINT mixamorig:RightHandPinky4
											{
												OFFSET -2.115768 -0.000031 -0.003680
												CHANNELS 6 Xposition Yposition Zposition Xrotation Yrotation Zrotation
												End Site
												{
													OFFSET -211.577087 0.000000 -0.350686
												}
											}
										}
									}
								}
							}
						}
					}
				}
				JOINT mixamorig:LeftShoulder
				{
					OFFSET 4.570447 11.014725 -2.160855
					CHANNELS 6 Xposition Yposition Zposition Xrotation Yrotation Zrotation
					JOINT mixamorig:LeftArm
					{
						OFFSET 10.592371 -0.524597 -2.232119
						CHANNELS 6 Xposition Yposition Zposition Xrotation Yrotation Zrotation
						JOINT mixamorig:LeftForeArm
						{
							OFFSET 27.841532 -0.000031 0.000026
							CHANNELS 6 Xposition Yposition Zposition Xrotation Yrotation Zrotation
							JOINT mixamorig:LeftHand
							{
								OFFSET 28.328846 -0.000061 0.000022
								CHANNELS 6 Xposition Yposition Zposition Xrotation Yrotation Zrotation
								JOINT mixamorig:LeftHandThumb1
								{
									OFFSET 2.466141 -1.576172 2.681732
									CHANNELS 6 Xposition Yposition Zposition Xrotation Yrotation Zrotation
									JOINT mixamorig:LeftHandThumb2
									{
										OFFSET 3.217812 -1.872070 1.916482
										CHANNELS 6 Xposition Yposition Zposition Xrotation Yrotation Zrotation
										JOINT mixamorig:LeftHandThumb3
										{
											OFFSET 2.656029 -1.528778 1.514513
											CHANNELS 6 Xposition Yposition Zposition Xrotation Yrotation Zrotation
											JOINT mixamorig:LeftHandThumb4
											{
												OFFSET 2.020889 -1.154053 1.115139
												CHANNELS 6 Xposition Yposition Zposition Xrotation Yrotation Zrotation
												End Site
												{
													OFFSET 190.885437 -115.081749 130.048782
												}
											}
										}
									}
								}
								JOINT mixamorig:LeftHandIndex1
								{
									OFFSET 9.109314 -0.518021 2.259871
									CHANNELS 6 Xposition Yposition Zposition Xrotation Yrotation Zrotation
									JOINT mixamorig:LeftHandIndex2
									{
										OFFSET 3.699989 0.000000 -0.000322
										CHANNELS 6 Xposition Yposition Zposition Xrotation Yrotation Zrotation
										JOINT mixamorig:LeftHandIndex3
										{
											OFFSET 2.850006 0.000000 0.000352
											CHANNELS 6 Xposition Yposition Zposition Xrotation Yrotation Zrotation
											JOINT mixamorig:LeftHandIndex4
											{
												OFFSET 2.774864 -0.000031 -0.000027
												CHANNELS 6 Xposition Yposition Zposition Xrotation Yrotation Zrotation
												End Site
												{
													OFFSET 277.486267 0.000000 -0.009857
												}
											}
										}
									}
								}
								JOINT mixamorig:LeftHandMiddle1
								{
									OFFSET 9.533394 0.000061 0.000044
									CHANNELS 6 Xposition Yposition Zposition Xrotation Yrotation Zrotation
									JOINT mixamorig:LeftHandMiddle2
									{
										OFFSET 3.699989 -0.000015 -0.000231
										CHANNELS 6 Xposition Yposition Zposition Xrotation Yrotation Zrotation
										JOINT mixamorig:LeftHandMiddle3
										{
											OFFSET 2.949997 -0.000015 -0.000059
											CHANNELS 6 Xposition Yposition Zposition Xrotation Yrotation Zrotation
											JOINT mixamorig:LeftHandMiddle4
											{
												OFFSET 2.952896 0.000031 0.000063
												CHANNELS 6 Xposition Yposition Zposition Xrotation Yrotation Zrotation
												End Site
												{
													OFFSET 295.289337 0.000000 0.022810
												}
											}
										}
									}
								}
								JOINT mixamorig:LeftHandRing1
								{
									OFFSET 9.104523 -0.042999 -1.865074
									CHANNELS 6 Xposition Yposition Zposition Xrotation Yrotation Zrotation
									JOINT mixamorig:LeftHandRing2
									{
										OFFSET 3.150009 -0.000031 0.000043
										CHANNELS 6 Xposition Yposition Zposition Xrotation Yrotation Zrotation
										JOINT mixamorig:LeftHandRing3
										{
											OFFSET 2.949982 -0.000015 0.000040
											CHANNELS 6 Xposition Yposition Zposition Xrotation Yrotation Zrotation
											JOINT mixamorig:LeftHandRing4
											{
												OFFSET 2.644348 0.000000 0.000057
												CHANNELS 6 Xposition Yposition Zposition Xrotation Yrotation Zrotation
												End Site
												{
													OFFSET 264.434631 0.000000 0.012105
												}
											}
										}
									}
								}
								JOINT mixamorig:LeftHandPinky1
								{
									OFFSET 8.077789 -0.486847 -3.806259
									CHANNELS 6 Xposition Yposition Zposition Xrotation Yrotation Zrotation
									JOINT mixamorig:LeftHandPinky2
									{
										OFFSET 3.599953 0.000031 0.014727
										CHANNELS 6 Xposition Yposition Zposition Xrotation Yrotation Zrotation
										JOINT mixamorig:LeftHandPinky3
										{
											OFFSET 2.100021 0.000015 0.007705
											CHANNELS 6 Xposition Yposition Zposition Xrotation Yrotation Zrotation
											JOINT mixamorig:LeftHandPinky4
											{
												OFFSET 2.125504 0.000031 0.007517
												CHANNELS 6 Xposition Yposition Zposition Xrotation Yrotation Zrotation
												End Site
												{
													OFFSET 212.550781 0.000000 0.625752
												}
											}
										}
									}
								}
							}
						}
					}
				}
			}
		}
	}
	JOINT mixamorig:RightUpLeg
	{
		OFFSET -8.207787 -6.751648 -1.599560
		CHANNELS 6 Xposition Yposition Zposition Xrotation Yrotation Zrotation
		JOINT mixamorig:RightLeg
		{
			OFFSET -0.000002 -44.370117 0.345942
			CHANNELS 6 Xposition Yposition Zposition Xrotation Yrotation Zrotation
			JOINT mixamorig:RightFoot
			{
				OFFSET 0.000003 -44.423679 -3.043532
				CHANNELS 6 Xposition Yposition Zposition Xrotation Yrotation Zrotation
				JOINT mixamorig:RightToeBase
				{
					OFFSET -0.000002 -8.728671 10.710558
					CHANNELS 6 Xposition Yposition Zposition Xrotation Yrotation Zrotation
					JOINT mixamorig:RightToe_End
					{
						OFFSET -0.000001 -0.000679 9.278119
						CHANNELS 6 Xposition Yposition Zposition Xrotation Yrotation Zrotation
						End Site
						{
							OFFSET 0.000000 -0.067690 927.812134
						}
					}
				}
			}
		}
	}
	JOINT mixamorig:LeftUpLeg
	{
		OFFSET 8.207793 -6.751686 -1.599556
		CHANNELS 6 Xposition Yposition Zposition Xrotation Yrotation Zrotation
		JOINT mixamorig:LeftLeg
		{
			OFFSET -0.000004 -44.370014 0.346954
			CHANNELS 6 Xposition Yposition Zposition Xrotation Yrotation Zrotation
			JOINT mixamorig:LeftFoot
			{
				OFFSET -0.000001 -44.423672 -3.044401
				CHANNELS 6 Xposition Yposition Zposition Xrotation Yrotation Zrotation
				JOINT mixamorig:LeftToeBase
				{
					OFFSET -0.000002 -8.728669 10.710558
					CHANNELS 6 Xposition Yposition Zposition Xrotation Yrotation Zrotation
					JOINT mixamorig:LeftToe_End
					{
						OFFSET -0.000003 -0.000679 9.278133
						CHANNELS 6 Xposition Yposition Zposition Xrotation Yrotation Zrotation
						End Site
						{
							OFFSET 0.000000 -0.068021 927.813477
						}
					}
				}
			}
		}
	}
}
MOTION
Frames: 3
Frame Time: 0.033333
0.000006 104.270477 1.554256 0.000010 0.000003 -0.000113 -0.000005 10.181587 0.131522 0.000001 -0.000003 0.000084 -0.000000 9.893967 -1.470711 0.000001 0.000000 -0.000000 -0.000000 9.220802 -1.370642 0.000000 -0.000000 -0.000000 0.000001 16.740433 -2.049030 0.000000 -0.000000 -0.000000 0.000000 9.617859 1.685014 0.000000 0.000000 0.000000 0.000002 22.037384 7.501101 0.000000 -0.000000 0.000000 -4.569968 11.014880 -2.160881 0.000008 0.000001 -0.000038 -10.592866 -0.524792 -2.231868 73.930357 37.268869 -28.480038 -27.841539 0.000011 0.000555 -52.943771 106.302571 67.205653 -28.328819 0.000010 0.000028 -0.000322 -0.000048 0.000010 -2.464423 -1.573933 2.682382 -27.692109 -151.416920 29.964508 -3.215234 -1.872507 1.924616 148.759813 34.486667 33.205067 -2.654958 -1.527887 1.513079 152.552999 26.926919 -29.147019 -2.018830 -1.152022 1.108053 -0.000001 -0.000003 0.000000 -9.108376 -0.517564 2.260202 113.218186 17.270263 -26.019068 -3.700075 0.000313 0.001569 108.524220 13.822284 -19.090281 -2.850091 0.000368 -0.000198 109.187561 10.676024 -14.975610 -2.772170 -0.000014 -0.000023 -0.000004 -0.000001 -0.000000 -9.532589 0.000271 0.000291 104.345872 17.637084 -22.783619 -3.700070 0.000336 0.004018 103.061756 11.534981 -14.370826 -2.950042 0.000346 -0.001762 106.912152 9.832696 -13.230871 -2.946632 0.000000 -0.000156 0.000000 -0.000001 0.000000 -9.103701 -0.042761 -1.864810 103.509058 20.181851 -25.388587 -3.379330 0.000317 -0.000776 101.568984 7.668971 -9.411586 -2.889751 0.000363 0.000696 107.762005 3.868836 -5.359868 -2.638806 -0.000020 0.000946 -0.000000 0.000001 0.000002 -8.076752 -0.486387 -3.805989 94.862578 20.411286 -22.010575 -3.600032 0.000278 -0.003490 95.551123 6.879878 -7.196129 -2.100008 0.000330 -0.005475 98.030126 2.428537 -2.554508 -2.115773 -0.000054 -0.003681 -0.000002 -0.000003 -0.000007 4.570446 11.014691 -2.160851 -0.000018 0.000010 -0.000021 10.592437 -0.524465 -2.232384 73.601524 -25.334507 19.089668 27.841833 0.000058 -0.000179 105.991080 -72.440788 88.362492 28.328844 -0.000015 0.000025 0.000022 -0.000090 0.000002 2.465977 -1.576144 2.681909 -40.324730 159.323588 -7.148842 3.217785 -1.871742 1.916366 152.485353 -31.211096 -2.995288 2.656083 -1.528604 1.514436 142.107632 -28.011579 32.820241 2.020883 -1.154070 1.115152 0.000003 0.000002 0.000002 9.109377 -0.517817 2.259725 89.722027 -14.708264 14.625711 3.700041 0.000140 -0.000465 84.085530 -14.129274 12.768701 2.850048 0.000179 0.000224 81.710291 -12.179096 10.542046 2.774879 -0.000030 -0.000024 0.000001 -0.000000 0.000000 9.533456 0.000231 -0.000102 86.318838 -13.391414 12.556328 3.700054 0.000181 -0.000387 89.339639 -13.893987 13.733599 2.950078 0.000156 -0.000192 88.249234 -18.007256 17.476758 2.952873 -0.000028 0.000062 0.000007 -0.000000 -0.000000 9.104583 -0.042833 -1.865228 84.936517 -13.351908 12.231874 3.150048 0.000194 -0.000091 90.955874 -14.288987 14.528731 2.950041 0.000162 -0.000048 91.887880 -16.650910 17.202492 2.644317 0.000031 0.000057 0.000004 -0.000000 0.000000 8.077835 -0.486732 -3.806399 73.414780 -15.883827 12.318197 3.599992 0.000158 0.014563 74.504810 -12.807995 10.146858 2.100048 0.000167 0.007545 77.106702 -12.234132 10.151732 2.125497 -0.000015 0.007513 0.000000 -0.000002 -0.000000 -8.207786 -6.751667 -1.599560 -0.077001 -0.000003 0.000080 -0.000002 -44.370110 0.345938 0.153719 -0.000000 -0.000000 0.000000 -44.423679 -3.043532 -0.076700 0.000000 -0.000002 -0.000006 -8.728667 10.710559 -0.000009 -0.000000 -0.000000 -0.000001 -0.000679 9.278123 0.000000 -0.000000 -0.000000 8.207792 -6.751710 -1.599556 -0.074518 -0.000003 0.000081 -0.000002 -44.370014 0.346960 0.148822 0.000002 0.000000 -0.000001 -44.423664 -3.044403 -0.074314 0.000000 -0.000002 -0.000004 -8.728671 10.710558 0.000007 -0.000000 -0.000000 0.000000 -0.000680 9.278137 -0.000000 0.000000 -0.000001 
0.000006 104.270477 1.554256 0.000010 0.000003 -0.000113 -0.000005 10.181587 0.131522 0.000001 -0.000003 0.000084 -0.000000 9.893967 -1.470711 0.000001 0.000000 -0.000000 -0.000000 9.220802 -1.370642 0.000000 -0.000000 -0.000000 0.000001 16.740433 -2.049030 0.000000 -0.000000 -0.000000 0.000000 9.617859 1.685014 0.000000 0.000000 0.000000 0.000002 22.037384 7.501101 0.000000 -0.000000 0.000000 -4.569968 11.014880 -2.160881 0.000008 0.000001 -0.000038 -10.592860 -0.524807 -2.231836 74.472496 41.505639 -32.132379 -27.841515 0.000009 0.000547 -49.813966 104.055453 61.497780 -28.328831 0.000021 0.000030 -0.000320 -0.000044 0.000008 -2.464409 -1.573873 2.682340 -36.731040 -151.402508 12.377256 -3.215212 -1.872465 1.924592 144.382795 33.691605 41.074907 -2.654959 -1.527857 1.513059 148.965046 27.818549 -25.364683 -2.018842 -1.151983 1.108058 -0.000003 -0.000005 0.000002 -9.108371 -0.517543 2.260175 110.676699 15.687913 -22.603131 -3.700071 0.000313 0.001555 106.325302 13.057910 -17.341411 -2.850077 0.000366 -0.000227 104.019505 10.855701 -13.871906 -2.772164 0.000001 -0.000021 -0.000000 0.000001 0.000000 -9.532602 0.000261 0.000275 102.231341 16.464936 -20.518194 -3.700071 0.000310 0.004012 103.786842 11.244242 -14.188908 -2.950050 0.000338 -0.001755 105.675382 10.940772 -14.392071 -2.946610 -0.000000 -0.000153 -0.000001 0.000002 0.000000 -9.103706 -0.042768 -1.864840 101.303214 18.775304 -22.746016 -3.379324 0.000336 -0.000763 105.348879 8.453267 -11.094231 -2.889754 0.000350 0.000704 111.649797 6.948460 -10.286637 -2.638793 -0.000015 0.000953 -0.000000 -0.000000 -0.000000 -8.076769 -0.486403 -3.805987 90.513339 23.170493 -23.213969 -3.600060 0.000284 -0.003481 95.484487 10.023606 -10.628074 -2.100023 0.000315 -0.005445 100.273304 5.233156 -6.003853 -2.115780 -0.000041 -0.003679 0.000001 -0.000000 -0.000001 4.570446 11.014691 -2.160851 -0.000018 0.000010 -0.000021 10.592443 -0.524465 -2.232396 73.243206 -27.429565 20.562102 27.841839 0.000025 -0.000205 110.152933 -75.729135 96.149372 28.328840 -0.000030 0.000020 0.000019 -0.000089 -0.000000 2.465985 -1.576152 2.681913 -36.490419 161.376183 -17.064977 3.217814 -1.871726 1.916346 158.688722 -30.084002 6.687897 2.656104 -1.528633 1.514467 141.877140 -27.280276 46.515958 2.020902 -1.154079 1.115140 -0.000001 0.000003 0.000004 9.109368 -0.517863 2.259731 86.381218 -17.409659 16.346471 3.700040 0.000154 -0.000451 84.046291 -12.114301 10.939400 2.850039 0.000195 0.000191 84.932200 -10.055090 9.205524 2.774887 -0.000030 -0.000027 0.000000 -0.000001 0.000000 9.533461 0.000203 -0.000095 85.587591 -16.930610 15.682461 3.700058 0.000181 -0.000381 88.570246 -11.308542 11.028967 2.950036 0.000185 -0.000211 90.791751 -12.563856 12.740229 2.952872 -0.000045 0.000065 0.000003 -0.000001 0.000001 9.104574 -0.042856 -1.865231 84.703245 -16.669118 15.215076 3.150057 0.000220 -0.000096 91.048874 -10.762357 10.961832 2.950039 0.000201 -0.000071 93.732715 -10.819141 11.545073 2.644319 0.000032 0.000058 -0.000000 0.000000 -0.000000 8.077836 -0.486728 -3.806409 74.910469 -18.756669 14.889193 3.600020 0.000169 0.014566 78.339278 -14.677301 12.404110 2.100030 0.000180 0.007545 81.133345 -11.850870 10.568764 2.125496 0.000000 0.007510 0.000000 -0.000001 -0.000000 -8.207786 -6.751667 -1.599560 -0.077001 -0.000003 0.000080 -0.000002 -44.370110 0.345938 0.153719 -0.000000 -0.000000 0.000000 -44.423679 -3.043532 -0.076700 0.000000 -0.000002 -0.000006 -8.728667 10.710559 -0.000009 -0.000000 -0.000000 -0.000001 -0.000679 9.278123 0.000000 -0.000000 -0.000000 8.207792 -6.751710 -1.599556 -0.074518 -0.000003 0.000081 -0.000002 -44.370014 0.346960 0.148822 0.000002 0.000000 -0.000001 -44.423664 -3.044403 -0.074314 0.000000 -0.000002 -0.000004 -8.728671 10.710558 0.000007 -0.000000 -0.000000 0.000000 -0.000680 9.278137 -0.000000 0.000000 -0.000001 
0.000006 104.270477 1.554256 0.000010 0.000003 -0.000113 -0.000005 10.181587 0.131522 0.000001 -0.000003 0.000084 -0.000000 9.893967 -1.470711 0.000001 0.000000 -0.000000 -0.000000 9.220802 -1.370642 0.000000 -0.000000 -0.000000 0.000001 16.740433 -2.049030 0.000000 -0.000000 -0.000000 0.000000 9.617859 1.685014 0.000000 0.000000 0.000000 0.000002 22.037384 7.501101 0.000000 -0.000000 0.000000 -4.569968 11.014880 -2.160881 0.000008 0.000001 -0.000038 -10.592853 -0.524805 -2.231827 74.939053 43.725546 -34.190117 -27.841528 -0.000009 0.000558 -48.206881 103.057337 58.761470 -28.328833 0.000007 0.000027 -0.000321 -0.000041 0.000006 -2.464397 -1.573844 2.682358 -39.487461 -154.617984 7.860223 -3.215262 -1.872531 1.924619 149.948074 33.445623 22.535997 -2.654954 -1.527871 1.513066 148.535700 27.550314 -28.365871 -2.018842 -1.152012 1.108062 -0.000002 -0.000001 0.000002 -9.108375 -0.517549 2.260185 109.107996 15.777117 -22.093449 -3.700065 0.000308 0.001536 105.089174 12.854430 -16.699584 -2.850081 0.000365 -0.000220 102.938860 10.821802 -13.565618 -2.772156 -0.000017 -0.000017 0.000001 -0.000001 -0.000000 -9.532584 0.000278 0.000281 100.379882 16.818651 -20.287253 -3.700059 0.000334 0.004014 101.464933 11.543198 -13.980899 -2.950051 0.000330 -0.001773 103.362318 11.318234 -14.284894 -2.946625 0.000000 -0.000157 -0.000000 -0.000002 -0.000000 -9.103699 -0.042746 -1.864825 99.584520 19.228668 -22.610155 -3.379319 0.000307 -0.000782 103.123111 8.725930 -11.003380 -2.889755 0.000350 0.000717 109.217682 7.149299 -10.115018 -2.638819 -0.000001 0.000932 -0.000001 0.000003 0.000001 -8.076776 -0.486409 -3.805983 90.303331 23.075162 -23.035639 -3.600028 0.000294 -0.003497 92.349970 10.274364 -10.323996 -2.100009 0.000324 -0.005453 96.445215 5.507698 -5.918718 -2.115755 -0.000042 -0.003676 0.000002 -0.000000 -0.000002 4.570446 11.014691 -2.160851 -0.000018 0.000010 -0.000021 10.592459 -0.524465 -2.232408 72.803970 -34.168086 25.535733 27.841839 0.000035 -0.000188 111.959996 -77.148865 99.514155 28.328850 -0.000029 0.000020 0.000025 -0.000089 -0.000001 2.466040 -1.576167 2.681908 -29.288698 159.316089 -31.726700 3.217824 -1.871768 1.916391 159.700737 -29.161571 11.454898 2.656105 -1.528645 1.514467 140.703181 -27.542004 47.767915 2.020884 -1.154072 1.115143 0.000004 0.000005 0.000002 9.109373 -0.517853 2.259752 86.602127 -17.436899 16.434613 3.700035 0.000175 -0.000478 83.739212 -11.694552 10.503856 2.850056 0.000191 0.000193 84.508626 -9.672249 8.789481 2.774878 -0.000016 -0.000028 0.000003 -0.000000 0.000001 9.533452 0.000227 -0.000100 85.670933 -16.927014 15.701732 3.700032 0.000186 -0.000378 88.033810 -10.881586 10.513983 2.950057 0.000193 -0.000197 89.824030 -12.352290 12.317621 2.952852 -0.000031 0.000065 0.000003 0.000000 -0.000001 9.104575 -0.042853 -1.865229 85.269352 -16.852331 15.534159 3.150040 0.000206 -0.000107 90.299766 -10.732633 10.790406 2.950025 0.000184 -0.000076 91.922564 -10.845944 11.215600 2.644325 0.000046 0.000057 -0.000001 -0.000000 -0.000000 8.077828 -0.486736 -3.806405 75.128290 -18.890635 15.051927 3.600009 0.000178 0.014588 77.308828 -15.214526 12.614839 2.100060 0.000169 0.007555 79.033854 -12.330979 10.585025 2.125507 -0.000015 0.007513 0.000002 0.000000 0.000002 -8.207786 -6.751667 -1.599560 -0.077001 -0.000003 0.000080 -0.000002 -44.370110 0.345938 0.153719 -0.000000 -0.000000 0.000000 -44.423679 -3.043532 -0.076700 0.000000 -0.000002 -0.000006 -8.728667 10.710559 -0.000009 -0.000000 -0.000000 -0.000001 -0.000679 9.278123 0.000000 -0.000000 -0.000000 8.207792 -6.751710 -1.599556 -0.074518 -0.000003 0.000081 -0.000002 -44.370014 0.346960 0.148822 0.000002 0.000000 -0.000001 -44.423664 -3.044403 -0.074314 0.000000 -0.000002 -0.000004 -8.728671 10.710558 0.000007 -0.000000 -0.000000 0.000000 -0.000680 9.278137 -0.000000 0.000000 -0.000001 
